<svg xmlns="http://www.w3.org/2000/svg" width="205.181" height="127.229" viewBox="0 0 205.181 127.229">
  <g id="Vector" style="isolation: isolate">
    <g id="Group_14" data-name="Group 14" transform="translate(159.712 111.334)">
      <path id="Path_106" data-name="Path 106" d="M690.763,472.115l-2.133-.5,1.29-9.832,3.148.738Z" transform="translate(-682.317 -461.783)" fill="#ffb6b6"/>
      <path id="Path_107" data-name="Path 107" d="M662.469,489.825h0a.632.632,0,0,0,.4.8l4.208,1.092a3.927,3.927,0,0,1,2.721-1.835l-.5,2.411,2.171.563.731-3.9s1.112-1.9.178-3.258,0-.961,0-.961l.141-2.493-3.381-.466-.989,3.714-2.55,3.279-2.634.547a.679.679,0,0,0-.5.506h0Z" transform="translate(-662.444 -476.958)" fill="#2f2e41"/>
    </g>
    <g id="Group_15" data-name="Group 15" transform="translate(181.248 110.56)">
      <path id="Path_108" data-name="Path 108" d="M759.127,467.358l-1.946,1.008-5.415-8.307,2.871-1.487Z" transform="translate(-751.766 -458.572)" fill="#ffb6b6"/>
      <path id="Path_109" data-name="Path 109" d="M762.08,487.019h0a.633.633,0,0,0,.821.345l3.907-1.908a3.927,3.927,0,0,1,.872-3.164l1.188,2.158,2.015-.984-1.98-3.435s-.39-2.165-1.984-2.59-.621-.733-.621-.733l-1.515-1.985-2.871,1.845,1.664,3.464.2,4.149-1.645,2.129a.679.679,0,0,0-.048.708Z" transform="translate(-759.466 -470.829)" fill="#2f2e41"/>
    </g>
    <path id="b" d="M304.99,83.588h56.542a1.289,1.289,0,0,0,1.289-1.289V2.289A1.289,1.289,0,0,0,361.532,1H304.99A1.289,1.289,0,0,0,303.7,2.289V82.3a1.289,1.289,0,0,0,1.289,1.289Z" transform="translate(-230.48 -0.759)" fill="#fff"/>
    <path id="Path_110" data-name="Path 110" d="M362.3,83.07H302.7V0h59.6Zm-59.12-.482h58.638V.482H303.183Z" transform="translate(-229.721)" fill="#e6e6e6"/>
    <path id="c" d="M389.765,55.2a.415.415,0,0,1,.415.415h0v.831a.415.415,0,0,1-.415.415H356.951a.415.415,0,0,1-.415-.415v-.831a.415.415,0,0,1,.415-.415h32.813" transform="translate(-270.577 -41.888)" fill="#e6e6e6"/>
    <path id="d" d="M389.765,71.562a.415.415,0,0,1,.415.415h0v.831a.415.415,0,0,1-.415.415H356.951a.415.415,0,0,1-.415-.415v-.831a.415.415,0,0,1,.415-.415h32.813" transform="translate(-270.577 -54.309)" fill="#e6e6e6"/>
    <path id="e" d="M389.765,87.929a.415.415,0,0,1,.415.415h0v.831a.415.415,0,0,1-.415.415H356.951a.415.415,0,0,1-.415-.415v-.831a.415.415,0,0,1,.415-.415h32.813" transform="translate(-270.577 -66.73)" fill="#02c744"/>
    <path id="f" d="M738.942,81.528h10.9a3.159,3.159,0,0,1,.317-1.481,3.7,3.7,0,0,0,.33,1.481h.5a1.373,1.373,0,0,0,1.372-1.372V73.073c0-3.468-2.965-8.667-6.187-6.491-.1-.005-1.737-.729-1.841-.729-2.834,0-3.809,2.56-4.665,5.262-.975-.449-1.647,1.427-2.133,4.729-.142.964-.268,2.049-.381,3.233a1.886,1.886,0,0,0,1.8,2.452h0Z" transform="translate(-559.358 -49.976)" fill="#2f2e41"/>
    <path id="g" d="M655.224,277.359c-.54,1.281-.318,2.6.5,2.942s1.914-.416,2.454-1.7a3.481,3.481,0,0,0,.285-1.618l2.221-5.457-2.583-.988-1.917,5.484a3.48,3.48,0,0,0-.96,1.334h0Z" transform="translate(-497.028 -205.315)" fill="#ffb6b6"/>
    <path id="h" d="M714.593,120.923l5.21,1.09-.8,2.4,1.6,18.335-2.664,5.9-16.248-1.332,4-7.991s-1.6-6.659.533-7.991,5.594-7.991,5.594-7.991l2.781-2.42Z" transform="translate(-532.516 -91.769)" fill="#02c744"/>
    <path id="i" d="M760.533,129.837l4.615,1.869-1.6,23.44,3.463,20.244-11.187,1.865s1.332-44.749,2.131-45.548a17.747,17.747,0,0,1,2.577-1.87h0Z" transform="translate(-573.6 -98.533)" fill="#2f2e41"/>
    <path id="j" d="M678.871,138.782s-3-1.9-4.626-.493S660.131,173.7,660.131,173.7l3.369,1.464,7.727-16.2,7.643-20.183Z" transform="translate(-500.976 -104.554)" fill="#2f2e41"/>
    <path id="k" d="M692.586,261.351l-3.047,23.421,4.262.266s2.216-6.047,4.744-13.169c.538-1.51,1.089-3.069,1.635-4.629.591-1.694,1.18-3.388,1.739-5.023,1.382-4.033,2.594-7.7,3.287-10.1.12-.421.226-.8.314-1.137,1.863-7.16,2.93-25.871,2.93-25.871L693,223.776l-.165.205-3.3,4.121.154.871,4.107,23.038-1.214,9.341h0Z" transform="translate(-523.294 -169.825)" fill="#2f2e41"/>
    <path id="l" d="M694.284,264.392l-1.214,9.341,5.463,9.618.495.9,7.522,13.67,3.716-2.107A223.146,223.146,0,0,1,702.4,274.6c-.336-1.111-.647-2.211-.927-3.282-.823-3.135.525-8.857,0-10.434-1.782-5.322-7.589-15.969-10.284-20.792l-1.012,1.263,4.108,23.038Z" transform="translate(-523.778 -182.207)" fill="#2f2e41"/>
    <path id="m" d="M682.537,130.128l-5.394,2.067-14.117,41.286,8.524,1.332,4-23.973,6.992-20.713Z" transform="translate(-503.173 -98.755)" fill="#2f2e41"/>
    <path id="n" d="M797.6,290.642c.137,1.384.962,2.434,1.843,2.347s1.483-1.28,1.345-2.664a3.48,3.48,0,0,0-.523-1.558l-.655-5.855-2.741.366.937,5.733A3.479,3.479,0,0,0,797.6,290.642Z" transform="translate(-604.746 -214.703)" fill="#ffb6b6"/>
    <path id="o" d="M786.759,137.061s3.463-.8,4.528,1.066,1.6,38.09,1.6,38.09l-3.664.266-1.929-17.846-.533-21.576h0Z" transform="translate(-597.075 -103.887)" fill="#2f2e41"/>
    <circle id="p" cx="5.537" cy="5.537" r="5.537" transform="translate(179.728 17.434)" fill="#ffb6b6"/>
    <path id="q" d="M769.3,95.652h2.734a.262.262,0,0,0,.264-.246V95.39a.264.264,0,0,1,.515-.064q.057.165.129.325h.269V87.115a2.651,2.651,0,0,0-2.651-2.651h0a2.651,2.651,0,0,0-2.592,2.1s-1.858,2.279-.763,3.561-.5,2.324-.5,2.324a2.651,2.651,0,0,0,2.592,3.207Z" transform="translate(-581.813 -64.1)" fill="#2f2e41"/>
    <path id="r" d="M376.641,155.749a1.286,1.286,0,0,0,.314-1.833l-2.011-2.767a1.447,1.447,0,0,0-2.184-.184c-3.4,1.82-5.237,4.478-3.2,7.62a10.787,10.787,0,0,0,.114,1.568,1.508,1.508,0,0,0,.237.634,1.446,1.446,0,0,0,1.648.57l3.288-1.068a1.293,1.293,0,0,0,.819-1.678A2.339,2.339,0,0,1,376.641,155.749Z" transform="translate(-279.814 -114.255)" fill="#f2f2f2"/>
    <path id="s" d="M428.461,196.784a1.626,1.626,0,0,0-1.754,1.637v2.837a1.448,1.448,0,0,0,1.668,1.431c4.608.568,7.758-1.436,7.947-5.833a1.446,1.446,0,0,0-.854-2.011l-2.753-.895a1.627,1.627,0,0,0-2.1,1.293A1.765,1.765,0,0,1,428.461,196.784Z" transform="translate(-323.83 -147.128)" fill="#e6e6e6"/>
    <path id="t" d="M362.727,203.794c.956,5.672,5.933,7.824,11.123,8.164a2.027,2.027,0,0,0,2.335-2v-4.743a2.4,2.4,0,0,0-2.414-2.373,2.366,2.366,0,0,1-2.462-1.734,2.41,2.41,0,0,0-3.058-1.532l-4.33,1.407a2.024,2.024,0,0,0-1.2,2.815Z" transform="translate(-275.118 -151.364)" fill="#3f3d56"/>
    <path id="u" d="M451.512,134.291a2.025,2.025,0,0,0-3.056.257l-3.847,5.3a1.3,1.3,0,0,0,.558,1.951,2.381,2.381,0,0,1,1.025,3.577.938.938,0,0,0,.516,1.358l6.483,2.106a2.029,2.029,0,0,0,2.631-1.637,15.1,15.1,0,0,0,.167-2.242c1.1-4.089-.421-7.944-4.477-10.665Z" transform="translate(-337.23 -101.475)" fill="#02c744"/>
    <path id="v" d="M404.011,141.162a1.622,1.622,0,0,0,2.109-.458l1.289-1.774a1.453,1.453,0,0,0,.238-1.194,1.424,1.424,0,0,0-.737-.94c-3.033-2.74-6.622-2.908-9.666-.014a1.461,1.461,0,0,0-.762.961,1.44,1.44,0,0,0,.235,1.186L398.223,141a1.608,1.608,0,0,0,2.232.382A3.457,3.457,0,0,1,404.011,141.162Z" transform="translate(-300.861 -102.207)" fill="#e6e6e6"/>
    <rect id="w" width="205.181" height="0.406" transform="translate(0 126.807)" fill="#e6e6e6"/>
    <path id="x" d="M356.744,304.068a1,1,0,0,1,1.1-.632,4.709,4.709,0,0,1,.832.132c.285.064.568.14.85.22.516.147,1.026.325,1.551.44a2.694,2.694,0,0,0,1.346.02,1.278,1.278,0,0,0,.887-.87.871.871,0,0,0-.434-1.037.723.723,0,0,0-.983.284l-.008.016a1.089,1.089,0,0,0,.318,1.215,3.557,3.557,0,0,0,.59.448,2.2,2.2,0,0,0,.707.317,1.021,1.021,0,0,0,1.122-.438.741.741,0,0,0,.084-.289c.013-.138-.2-.137-.215,0-.036.394-.5.579-.844.536a1.714,1.714,0,0,1-.654-.254,3.832,3.832,0,0,1-.542-.382.93.93,0,0,1-.371-1.066.537.537,0,0,1,.832-.111.758.758,0,0,1,.05,1.007,1.26,1.26,0,0,1-1.016.484,3.972,3.972,0,0,1-1.23-.193c-.5-.141-.986-.3-1.483-.431-.283-.075-.567-.143-.855-.2a2.823,2.823,0,0,0-.829-.057,1.123,1.123,0,0,0-1.017.781C356.5,304.146,356.712,304.2,356.744,304.068Z" transform="translate(-270.574 -229.379)" fill="#3f3d56"/>
    <path id="y" d="M363.164,286.541c.065,0,.117.186.117.415v.831c0,.229-.053.415-.117.415h-9.274c-.065,0-.117-.186-.117-.415v-.831c0-.23.053-.415.117-.415h9.274" transform="translate(-268.479 -217.457)" fill="#e6e6e6"/>
    <path id="a_" data-name="a`" d="M466.032,286.541c.065,0,.117.186.117.415v.831c0,.229-.052.415-.117.415h-9.274c-.065,0-.117-.186-.117-.415v-.831c0-.23.053-.415.117-.415h9.274" transform="translate(-346.546 -217.457)" fill="#e6e6e6"/>
    <path id="aa" d="M464.071,303.644l-1.841.609-.92.3a2.071,2.071,0,0,1-.9.165.6.6,0,0,1-.515-.365.531.531,0,0,1,.229-.54c.439-.334.995.006,1.306.352.381.423.6.97.953,1.413a3.4,3.4,0,0,0,1.179.94,2.741,2.741,0,0,0,2.835-.242,3.811,3.811,0,0,0,1.075-3.178.2.2,0,0,0-.394,0c0,1.026-.063,2.283-1,2.925a2.451,2.451,0,0,1-2.9-.2,4.75,4.75,0,0,1-1.044-1.334,2.417,2.417,0,0,0-1.215-1.135,1.1,1.1,0,0,0-1.311.458.833.833,0,0,0,.291,1.142.843.843,0,0,0,.1.048c.643.306,1.379-.053,2-.257l2.179-.72c.239-.079.137-.46-.1-.38Z" transform="translate(-348.715 -229.881)" fill="#02c744"/>
    <path id="Path_111" data-name="Path 111" d="M126.2,495.9a.1.1,0,0,0-.055-.032.822.822,0,0,0-.715.421l-3.234,6.006a.822.822,0,0,0,.007.831c.152.259,7.295.352,7.295.352C129.8,503.475,130.621,499.78,126.2,495.9Z" transform="translate(-92.651 -376.316)" fill="#e6e6e6"/>
    <g id="Group_16" data-name="Group 16" transform="translate(20.619 116.206)">
      <path id="Path_112" data-name="Path 112" d="M87.618,491.492l2.455-.022,1.085-9.478-3.623.032Z" transform="translate(-87.05 -481.992)" fill="#ffb6b6"/>
      <path id="Path_113" data-name="Path 113" d="M94.5,512.3h0a2.108,2.108,0,0,1,.123.693h0a.833.833,0,0,1-.826.84l-7.6.066a.568.568,0,0,1-.573-.563l0-.316A2.43,2.43,0,0,1,86,510.89s.97.91,2.4-.541l.417-.772L91.9,511.8l1.7.195c.373.043.7-.013.9.308h0Z" transform="translate(-85.524 -502.927)" fill="#2f2e41"/>
    </g>
    <g id="Group_17" data-name="Group 17" transform="translate(29.763 108.527)">
      <path id="Path_114" data-name="Path 114" d="M126.613,459.137l2.332.766,4.064-8.631-3.442-1.13Z" transform="translate(-125.85 -450.141)" fill="#ffb6b6"/>
      <path id="Path_115" data-name="Path 115" d="M132.219,484.272h0a2.108,2.108,0,0,1-.106.7h0a.833.833,0,0,1-1.051.532l-7.223-2.372a.568.568,0,0,1-.363-.717l.1-.3a2.43,2.43,0,0,1,1.041-1.893s.628,1.172,2.443.255l.643-.6,2.216,3.09,1.551.73c.339.16.669.212.751.578h0Z" transform="translate(-123.448 -472.705)" fill="#2f2e41"/>
    </g>
    <path id="Path_116" data-name="Path 116" d="M79.507,256.263l4.9,15.724,5.749,14.132-8.714,20.335L76.6,304.565l4.34-17.6-7.418-13.141-3.506,39.449-4.265-.511L60.2,265.508l.87-10.276Z" transform="translate(-45.688 -193.697)" fill="#2f2e41"/>
    <path id="ab" d="M71.911,106.979l-5.3-1.279-1.462,3.472s-7.16,1.21-7.526,6.691c0,0-1.427,7.2-.514,9.205s3.166,9.118,3.166,9.118-3.566,8.855-2.652,9.4,20.493,2.543,20.493,1.447.223-14.121.223-14.121l-.767-19.734-4.932-1.826-.731-2.375h0Z" transform="translate(-43.11 -80.216)" fill="#e6e6e6"/>
    <circle id="Ellipse_5" data-name="Ellipse 5" cx="5.34" cy="5.34" r="5.34" transform="translate(22.565 15.201)" fill="#ffb6b6"/>
    <path id="Path_117" data-name="Path 117" d="M90.957,62.121c.426.233.022,1.347.289,1.443.308.111,1.43-1.167,1.443-2.6a4.854,4.854,0,0,1,0-1.155c.125-.672.51-1.464.866-1.443.211.012.417.311.433.577.022.373-.341.52-.289.722.1.383,1.623.647,2.165,0,.425-.507.1-1.4.289-1.443.14-.034.291.456.866,1.01.217.209.539.519.722.433.264-.124.072-1,.144-1.01a7.13,7.13,0,0,0,.433,1.155c.43.706,1.318,1.25,1.732,1.01.254-.147.274-.556.289-.866.032-.654.982-2.158.735-2.858-.5-1.423-1.358-.42-1.746-.895-.525-.643-1-.3-1.876-1.01-.86-.7-.868-1.4-1.443-1.443-.518-.041-.7.512-1.3.433-.505-.067-.615-.5-1.01-.433-.362.057-.385.435-.866.577-.307.091-.374-.04-.722,0a2.076,2.076,0,0,0-1.3.866c-.35.475-.214.676-.577,1.155-.313.413-1.007.238-1.268.444a4.172,4.172,0,0,0-1.225,3.331,10.161,10.161,0,0,0,.413,2.74,7.1,7.1,0,0,0,1.791,2.721c.15.147.57.558.866.433.28-.119.288-.651.289-.722,0-.242-.063-.541-.577-1.3-.54-.8-.754-.887-.722-1.155.058-.474.815-.907,1.155-.722Z" transform="translate(-66.588 -40.787)" fill="#2f2e41"/>
    <g id="Group_18" data-name="Group 18" transform="translate(9.138 30.837)">
      <path id="Path_118" data-name="Path 118" d="M38.345,283.384c-.186,1.553.464,2.907,1.452,3.026s1.94-1.044,2.126-2.6a3.914,3.914,0,0,0-.195-1.838l.705-6.589-3.1-.265-.366,6.524a3.914,3.914,0,0,0-.623,1.74Z" transform="translate(-38.214 -239.627)" fill="#ffb6b6"/>
      <path id="Path_119" data-name="Path 119" d="M46.957,127.9a3.357,3.357,0,0,0-2.669,2.1c-.565,1.1-4.24,20.875-4.24,20.875l-1.032,6.253.531,1.034a5.235,5.235,0,0,0-.635,4.363h0l-1.009,6.11,4.743.026,3.7-16.005,3.112-9.282Z" transform="translate(-37.902 -127.902)" fill="#e6e6e6"/>
    </g>
    <g id="Group_19" data-name="Group 19" transform="translate(30.998 30.596)">
      <path id="Path_120" data-name="Path 120" d="M163.089,282.384c.186,1.553-.464,2.907-1.452,3.026s-1.94-1.044-2.126-2.6a3.914,3.914,0,0,1,.195-1.838L159,274.385l3.1-.265.366,6.524a3.914,3.914,0,0,1,.623,1.74Z" transform="translate(-151.664 -238.627)" fill="#ffb6b6"/>
      <path id="Path_121" data-name="Path 121" d="M131.072,126.9a3.357,3.357,0,0,1,2.669,2.1c.565,1.1,4.24,20.875,4.24,20.875l1.032,6.253-.531,1.034a5.235,5.235,0,0,1,.635,4.363h0l1.009,6.11-4.743.026-3.7-16.005-3.112-9.282,2.5-15.472Z" transform="translate(-128.571 -126.902)" fill="#e6e6e6"/>
    </g>
    <path id="Path_122" data-name="Path 122" d="M740.712,70.607c.2.322,1.242-.857,2.847-.987.409-.034,1.33,1.53,2.386,1.553.7.014,1.131.008,1.993,0,1.019-.011,1.3-.034,1.5-.283.381-.484.067-1.343.249-1.414.152-.059.546.472.747,1.131.424,1.383-1.1,3.309-1.246,5.091-.159,1.92,1.41-1.759,1.246,0-.184,1.98-.845,1.83-.837,2.546a.482.482,0,0,0,.09.283c.052.074.1.1,1,.283a8.02,8.02,0,0,0,1.744.283c.366-.107.738-.7,1-1.131.429-.7.125.006,0-.849-.12-.826-.493-.933-.5-1.7-.005-.962.586-1.253,1-2.263a7.174,7.174,0,0,0-.249-4.808,13.241,13.241,0,0,0-.767-1.631,4.871,4.871,0,0,0-1.289-1.6A6.017,6.017,0,0,0,748.9,63.9a3.8,3.8,0,0,0-1.637.1l-1.389.379a4.331,4.331,0,0,0-1.619.849h0a1.094,1.094,0,0,0-1,.816c-.016.05-.031.08-.043.076-2.5-.888-2.5,1.742-2.474,3.386a2.627,2.627,0,0,1-.022.438v.008a1.316,1.316,0,0,0-.007.653Z" transform="translate(-562.102 -48.458)" fill="#2f2e41"/>
    <rect id="Rectangle_1454" data-name="Rectangle 1454" width="26.353" height="0.482" transform="translate(119.716 36.677)" fill="#3f3d56"/>
    <path id="Path_123" data-name="Path 123" d="M617.231,144.85a3.375,3.375,0,1,1,3.375-3.375A3.379,3.379,0,0,1,617.231,144.85Zm0-6.268a2.893,2.893,0,1,0,2.893,2.893A2.9,2.9,0,0,0,617.231,138.581Z" transform="translate(-465.858 -104.804)" fill="#3f3d56"/>
    <circle id="Ellipse_6" data-name="Ellipse 6" cx="1.688" cy="1.688" r="1.688" transform="translate(149.686 34.983)" fill="#02c744"/>
    <rect id="Rectangle_1455" data-name="Rectangle 1455" width="26.353" height="0.482" transform="translate(59.516 54.518)" fill="#3f3d56"/>
    <path id="Path_124" data-name="Path 124" d="M210.856,215.474a3.375,3.375,0,1,1,3.375,3.375A3.379,3.379,0,0,1,210.856,215.474Zm.482,0a2.893,2.893,0,1,0,2.893-2.893A2.9,2.9,0,0,0,211.338,215.474Z" transform="translate(-160.02 -160.963)" fill="#3f3d56"/>
    <circle id="Ellipse_7" data-name="Ellipse 7" cx="1.688" cy="1.688" r="1.688" transform="translate(52.524 52.824)" fill="#02c744"/>
  </g>
</svg>
