<svg xmlns="http://www.w3.org/2000/svg" width="27" height="33.75" viewBox="0 0 27 33.75">
  <g id="Icon_ionic-ios-copy" data-name="Icon ionic-ios-copy" transform="translate(-4.5 -1.125)">
    <path id="Path_65" data-name="Path 65" d="M24.75,8.086h6.328a.423.423,0,0,0,.422-.422h0a1.963,1.963,0,0,0-.7-1.5L25.376,1.652a2.63,2.63,0,0,0-1.448-.52h0a.519.519,0,0,0-.52.52v5.1A1.346,1.346,0,0,0,24.75,8.086Z"/>
    <path id="Path_66" data-name="Path 66" d="M21.586,6.75V1.125H12.375a2.257,2.257,0,0,0-2.25,2.25V27a2.257,2.257,0,0,0,2.25,2.25H29.25A2.257,2.257,0,0,0,31.5,27V9.914H24.75A3.169,3.169,0,0,1,21.586,6.75Z"/>
    <path id="Path_67" data-name="Path 67" d="M8.156,28.969V5.625H6.75A2.257,2.257,0,0,0,4.5,7.875v24.75a2.257,2.257,0,0,0,2.25,2.25h18A2.257,2.257,0,0,0,27,32.625V31.219H10.406A2.257,2.257,0,0,1,8.156,28.969Z"/>
  </g>
</svg>
