<svg xmlns="http://www.w3.org/2000/svg" width="29.25" height="29.25" viewBox="0 0 29.25 29.25">
  <g id="Icon_ionic-ios-browsers" data-name="Icon ionic-ios-browsers" transform="translate(-3.375 -3.375)">
    <path id="Path_35" data-name="Path 35" d="M3.375,12.755V29.813a2.812,2.812,0,0,0,2.813,2.813H23.245a2.812,2.812,0,0,0,2.813-2.812V12.755a2.812,2.812,0,0,0-2.812-2.813H6.188A2.812,2.812,0,0,0,3.375,12.755Z"/>
    <path id="Path_36" data-name="Path 36" d="M9.942,6.188v2a.282.282,0,0,0,.281.281H24.159a3.385,3.385,0,0,1,3.375,3.375V25.777a.282.282,0,0,0,.281.281h2a2.812,2.812,0,0,0,2.813-2.812V6.188a2.812,2.812,0,0,0-2.812-2.812H12.755A2.812,2.812,0,0,0,9.942,6.188Z"/>
  </g>
</svg>
