<svg xmlns="http://www.w3.org/2000/svg" width="27" height="29.245" viewBox="0 0 27 29.245">
  <g id="Icon_ionic-ios-volume-off" data-name="Icon ionic-ios-volume-off" transform="translate(-4.5 -3.38)">
    <path id="Path_49" data-name="Path 49" d="M27.429,32.625a1,1,0,0,1-.865-.492L10.526,4.873a.984.984,0,0,1,.359-1.357,1.007,1.007,0,0,1,1.371.359l16.038,27.26a.991.991,0,0,1-.865,1.491Z"/>
    <g id="Group_2" data-name="Group 2">
      <path id="Path_50" data-name="Path 50" d="M9.352,14.063H5.625A1.124,1.124,0,0,0,4.5,15.188v5.625a1.128,1.128,0,0,0,1.125,1.125H9.352l4.6,3.691a1.146,1.146,0,0,0,.71.246,1.068,1.068,0,0,0,.485-.112,1.125,1.125,0,0,0,.64-1.013V16.024l-2.848-4.837Z"/>
      <path id="Path_51" data-name="Path 51" d="M31.5,18h0A15.345,15.345,0,0,0,26.895,7a.845.845,0,0,0-1.188,1.2A13.648,13.648,0,0,1,29.813,18h0a13.677,13.677,0,0,1-2.932,8.494l.914,1.547A15.321,15.321,0,0,0,31.5,18Z"/>
      <path id="Path_52" data-name="Path 52" d="M27.084,18h0a11.426,11.426,0,0,0-3.3-8.079.845.845,0,1,0-1.2,1.188,9.738,9.738,0,0,1,2.813,6.9h0a9.825,9.825,0,0,1-.977,4.3l1,1.695A11.538,11.538,0,0,0,27.084,18Z"/>
      <path id="Path_53" data-name="Path 53" d="M22.331,18h0a7.292,7.292,0,0,0-2.109-5.161.845.845,0,0,0-1.2-.007,1.028,1.028,0,0,0-.112.134L22.3,18.717C22.317,18.478,22.331,18.239,22.331,18Z"/>
    </g>
  </g>
</svg>
